<?xml version="1.0" encoding="UTF-8"?>
<svg id="Layer_2" data-name="Layer 2" xmlns="http://www.w3.org/2000/svg" viewBox="0 0 104.75 118.64">
  <defs>
    <style>
      .cls-1 {
        fill: #023a48;
        stroke-width: 0px;
      }
    </style>
  </defs>
  <g id="Layer_6" data-name="Layer 6">
    <path class="cls-1" d="m97.22,24.73l-11.22-6.48c-2.32-1.34-5.17-1.34-7.48,0-16.7,9.64-35.76,20.65-52.46,30.29-2.31,1.33-5.15,1.33-7.46,0h-.01c-4.99-2.89-4.99-10.08,0-12.96,16.06-9.27,33.56-19.38,48.71-28.13l-11.18-6.45c-2.32-1.34-5.17-1.34-7.48,0C34.42,9.21,17.93,18.73,3.74,26.92,1.42,28.26,0,30.73,0,33.4v51.84c0,2.67,1.42,5.14,3.74,6.47,4.39,2.53,10.5,6.06,14.93,8.62,2.31,1.33,5.16,1.34,7.47,0,15.39-8.89,36.79-21.24,52.31-30.2,2.31-1.33,5.15-1.33,7.46,0h0c4.99,2.88,4.99,10.08,0,12.96-16.01,9.24-33.45,19.31-48.55,28.03,0,0,0,0,0,0l11.26,6.5c2.31,1.34,5.16,1.34,7.48,0,12.72-7.34,32.13-18.55,44.9-25.92,2.31-1.34,3.74-3.8,3.74-6.47v-51.84c0-2.67-1.43-5.14-3.74-6.48l-3.79-2.19Zm-15.04,25.96c-17.52,10.12-38.18,22.05-56.12,32.4-2.31,1.34-5.16,1.34-7.48,0h0c-4.99-2.88-4.99-10.08,0-12.96,19.38-11.19,41.37-23.89,59.86-34.56,2.32-1.34,5.17-1.34,7.48,0h0c4.99,2.88,4.99,10.08,0,12.96l-3.74,2.16Z"/>
  </g>
</svg>